<svg xmlns="http://www.w3.org/2000/svg" xmlns:xlink="http://www.w3.org/1999/xlink" width="120" zoomAndPan="magnify" viewBox="0 0 120 150" height="150" preserveAspectRatio="xMidYMid meet" version="1.0"><path stroke-linecap="butt" transform="matrix(0.821946, -0.0264978, 0.0326577, 0.666911, 178.011587, -14.520173)" fill="none" stroke-linejoin="miter" d="M -208.833203 55.06119 C -208.287931 71.360088 -206.840317 101.430035 -205.665685 131.313419 C -204.486308 161.196991 -203.580145 190.899849 -203.127265 205.935772 C -202.674153 220.965847 -202.674324 221.328989 -201.586446 222.057508 C -200.50308 222.779991 -198.326921 223.86804 -196.243949 223.59351 C -194.161209 223.324828 -192.171656 221.693567 -192.350994 202.404451 C -192.530332 183.115335 -194.888049 146.167987 -196.609048 116.280466 C -198.330046 86.392946 -199.414558 63.571101 -199.960391 51.711958 C -200.501247 39.847156 -200.503192 38.939209 -201.858573 37.766626 C -203.218466 36.588007 -205.936309 35.138717 -207.47388 35.68092 C -209.016197 36.222935 -209.378475 38.762291 -208.833203 55.06119 Z M -208.833203 55.06119 " stroke="#ffffff" stroke-width="1.459" stroke-opacity="1" stroke-miterlimit="4"/><path stroke-linecap="butt" transform="matrix(0.822594, 0, 0, 0.667437, 207.404379, -2.379516)" fill="none" stroke-linejoin="miter" d="M -138.336708 14.088144 C -142.254382 13.971091 -146.832124 14.649994 -152.141165 17.026153 C -164.278829 22.457374 -180.21545 36.767003 -193.621016 39.394825 C -207.021833 42.022646 -217.891596 32.962808 -225.133356 30.159408 C -228.599903 28.813308 -231.23068 28.912802 -233.424577 29.960419 L -226.586457 118.393342 C -224.09814 117.433514 -221.315405 117.281346 -216.71392 120.084746 C -210.464637 123.888941 -200.862776 133.124358 -188.459184 130.133675 C -176.050844 127.148845 -160.836025 111.932061 -147.796109 106.951491 C -134.756192 101.970921 -123.886429 107.226564 -118.093022 109.03502 C -117.342728 109.269124 -116.687408 109.43885 -116.089072 109.555902 L -123.226361 17.342194 C -124.161854 17.178321 -125.201818 16.932511 -126.422233 16.575502 C -129.375921 15.709316 -133.30784 14.240311 -138.336708 14.088144 Z M -138.336708 14.088144 " stroke="#ffffff" stroke-width="1.459" stroke-opacity="1" stroke-miterlimit="4"/><path stroke-linecap="butt" transform="matrix(0.822594, 0, 0, 0.667437, 207.404379, -2.379516)" fill="none" stroke-linejoin="miter" d="M -180.153717 35.532103 L -171.135945 121.793707 L -180.10623 33.150091 Z M -180.153717 35.532103 " stroke="#ffffff" stroke-width="1.459" stroke-opacity="1" stroke-miterlimit="4"/><path stroke-linecap="butt" transform="matrix(0.822594, 0, 0, 0.667437, 207.404379, -2.379516)" fill="none" stroke-linejoin="miter" d="M -206.584953 41.419828 L -197.567181 130.303401 L -206.532718 38.967584 Z M -206.584953 41.419828 " stroke="#ffffff" stroke-width="1.459" stroke-opacity="1" stroke-miterlimit="4"/><path stroke-linecap="butt" transform="matrix(0.822594, 0, 0, 0.667437, 207.404379, -2.379516)" fill="none" stroke-linejoin="miter" d="M -197.852103 43.895481 L -198.175014 43.596998 L -196.58895 59.363927 L -196.375259 59.065444 Z M -195.302054 70.080054 L -195.529991 69.875213 L -193.953424 85.478268 L -193.820461 85.290985 Z M -192.718764 96.592373 L -192.846979 96.475321 L -191.322647 111.586757 L -191.265663 111.510673 Z M -190.201955 122.4492 L -190.230448 122.425789 L -189.451662 130.180496 Z M -190.201955 122.4492 " stroke="#ffffff" stroke-width="1.459" stroke-opacity="1" stroke-miterlimit="4"/><path stroke-linecap="butt" transform="matrix(0.822594, 0, 0, 0.667437, 207.404379, -2.379516)" fill="none" stroke-linejoin="miter" d="M -186.91111 42.888833 L -187.172288 43.204873 L -185.785669 56.99362 L -185.510245 57.274545 Z M -184.351563 69.190457 L -184.527265 69.436267 L -183.150143 83.102109 L -182.97919 83.28354 Z M -181.792017 95.497935 L -181.891739 95.62084 L -180.519366 109.216451 L -180.448136 109.286682 Z M -179.246716 121.635687 L -179.265711 121.659097 L -178.843077 125.832008 L -178.838328 125.826155 Z M -179.246716 121.635687 " stroke="#ffffff" stroke-width="1.459" stroke-opacity="1" stroke-miterlimit="4"/><path stroke-linecap="butt" transform="matrix(-0.571002, -0.480443, 0.480687, -0.541624, 207.404379, -2.379516)" fill="none" stroke-linejoin="miter" d="M 75.594922 -225.225489 L 91.521608 -225.224603 L 91.524173 -209.115045 L 75.597488 -209.115932 Z M 75.594922 -225.225489 " stroke="#ffffff" stroke-width="1.47" stroke-opacity="1" stroke-miterlimit="4"/><path stroke-linecap="butt" transform="matrix(-0.571002, -0.480443, 0.480687, -0.541624, 207.404379, -2.379516)" fill="none" stroke-linejoin="miter" d="M 93.273797 -208.726977 L 109.200483 -208.72609 L 109.199573 -192.620661 L 93.276363 -192.617419 Z M 93.273797 -208.726977 " stroke="#ffffff" stroke-width="1.47" stroke-opacity="1" stroke-miterlimit="4"/><path stroke-linecap="butt" transform="matrix(-0.571002, -0.480443, 0.480687, -0.541624, 207.404379, -2.379516)" fill="none" stroke-linejoin="miter" d="M 110.953113 -192.236067 L 126.879798 -192.235181 L 126.878448 -176.122149 L 110.951762 -176.123036 Z M 110.953113 -192.236067 " stroke="#ffffff" stroke-width="1.47" stroke-opacity="1" stroke-miterlimit="4"/><path stroke-linecap="butt" transform="matrix(0.822594, 0, 0, 0.667437, 207.404379, -2.379516)" fill="none" stroke-linejoin="miter" d="M -183.08841 36.357321 L -186.564455 36.796267 C -189.199981 38.17163 -191.769025 39.254362 -194.219351 39.845476 C -196.69817 40.442442 -199.058272 40.536084 -201.309153 40.296127 L -191.939978 50.011458 L -182.523316 36.936729 Z M -183.08841 36.357321 " stroke="#ffffff" stroke-width="1.459" stroke-opacity="1" stroke-miterlimit="4"/><path stroke-linecap="butt" transform="matrix(0.822594, 0, 0, 0.667437, 207.404379, -2.379516)" fill="none" stroke-linejoin="miter" d="M -150.887509 18.401516 L -142.605785 105.968253 L -150.844771 15.984389 Z M -150.887509 18.401516 " stroke="#ffffff" stroke-width="1.459" stroke-opacity="1" stroke-miterlimit="4"/><path stroke-linecap="butt" transform="matrix(0.822594, 0, 0, 0.667437, 207.404379, -2.379516)" fill="none" stroke-linejoin="miter" d="M -218.893571 35.707681 L -210.787548 123.836268 L -218.850832 33.272996 Z M -218.893571 35.707681 " stroke="#ffffff" stroke-width="1.459" stroke-opacity="1" stroke-miterlimit="4"/></svg>