<svg xmlns="http://www.w3.org/2000/svg" xmlns:xlink="http://www.w3.org/1999/xlink" width="120" zoomAndPan="magnify" viewBox="0 0 90 112.499997" height="150" preserveAspectRatio="xMidYMid meet" version="1.0"><defs><clipPath id="e0be7fc2d7"><path d="M 1.136719 3 L 24 3 L 24 112.003906 L 1.136719 112.003906 Z M 1.136719 3 " clip-rule="nonzero"/></clipPath><clipPath id="0a3d1aa2c3"><path d="M 3 0 L 88.496094 0 L 88.496094 70 L 3 70 Z M 3 0 " clip-rule="nonzero"/></clipPath><clipPath id="edf2b939de"><path d="M 31 22 L 45 22 L 45 36 L 31 36 Z M 31 22 " clip-rule="nonzero"/></clipPath><clipPath id="a6d9a19d26"><path d="M 37.542969 22.542969 L 44.339844 28.644531 L 38.328125 35.335938 L 31.535156 29.234375 Z M 37.542969 22.542969 " clip-rule="nonzero"/></clipPath><clipPath id="09d6a07a1b"><path d="M 0.5 0.460938 L 13.402344 0.460938 L 13.402344 13.363281 L 0.5 13.363281 Z M 0.5 0.460938 " clip-rule="nonzero"/></clipPath><clipPath id="164cf1a230"><path d="M 6.542969 0.542969 L 13.339844 6.644531 L 7.328125 13.335938 L 0.535156 7.234375 Z M 6.542969 0.542969 " clip-rule="nonzero"/></clipPath><clipPath id="3cec09d7ef"><rect x="0" width="14" y="0" height="14"/></clipPath><clipPath id="1b775c9dfa"><path d="M 32 36 L 47 36 L 47 50 L 32 50 Z M 32 36 " clip-rule="nonzero"/></clipPath><clipPath id="afbdd506ba"><path d="M 38.617188 36.203125 L 46.097656 42.507812 L 40.226562 49.480469 L 32.742188 43.175781 Z M 38.617188 36.203125 " clip-rule="nonzero"/></clipPath><clipPath id="aa1d961ec0"><path d="M 0.695312 0.078125 L 14.3125 0.078125 L 14.3125 13.699219 L 0.695312 13.699219 Z M 0.695312 0.078125 " clip-rule="nonzero"/></clipPath><clipPath id="0cdeb1d958"><path d="M 6.617188 0.203125 L 14.097656 6.507812 L 8.226562 13.480469 L 0.742188 7.175781 Z M 6.617188 0.203125 " clip-rule="nonzero"/></clipPath><clipPath id="9387db221d"><rect x="0" width="15" y="0" height="14"/></clipPath><clipPath id="6864982b5d"><path d="M 34 50 L 49 50 L 49 64 L 34 64 Z M 34 50 " clip-rule="nonzero"/></clipPath><clipPath id="fa3bef102a"><path d="M 40.707031 50.226562 L 48.191406 56.527344 L 42.316406 63.5 L 34.835938 57.195312 Z M 40.707031 50.226562 " clip-rule="nonzero"/></clipPath><clipPath id="532fbfe15a"><path d="M 0.605469 0.175781 L 14.226562 0.175781 L 14.226562 13.558594 L 0.605469 13.558594 Z M 0.605469 0.175781 " clip-rule="nonzero"/></clipPath><clipPath id="8a2ea7b5fc"><path d="M 6.707031 0.226562 L 14.191406 6.527344 L 8.316406 13.5 L 0.835938 7.195312 Z M 6.707031 0.226562 " clip-rule="nonzero"/></clipPath><clipPath id="6cc1335835"><rect x="0" width="15" y="0" height="14"/></clipPath><clipPath id="ed752518c3"><path d="M 2 9 L 11 9 L 11 38 L 2 38 Z M 2 9 " clip-rule="nonzero"/></clipPath><clipPath id="15a57dc9e5"><path d="M 2.53125 10.410156 L 8.402344 9.890625 L 10.804688 37.171875 L 4.933594 37.6875 Z M 2.53125 10.410156 " clip-rule="nonzero"/></clipPath><clipPath id="115368c4b6"><path d="M 0.347656 0.796875 L 8.953125 0.796875 L 8.953125 28.753906 L 0.347656 28.753906 Z M 0.347656 0.796875 " clip-rule="nonzero"/></clipPath><clipPath id="821ef24c3d"><path d="M 0.53125 1.410156 L 6.402344 0.890625 L 8.804688 28.171875 L 2.933594 28.6875 Z M 0.53125 1.410156 " clip-rule="nonzero"/></clipPath><clipPath id="f042b75246"><rect x="0" width="9" y="0" height="29"/></clipPath><clipPath id="03207a7049"><path d="M 5 30 L 14 30 L 14 59 L 5 59 Z M 5 30 " clip-rule="nonzero"/></clipPath><clipPath id="e406e8934f"><path d="M 5.023438 31.464844 L 10.894531 30.949219 L 13.296875 58.226562 L 7.425781 58.742188 Z M 5.023438 31.464844 " clip-rule="nonzero"/></clipPath><clipPath id="8a862bf195"><path d="M 0 0.824219 L 8.339844 0.824219 L 8.339844 28.777344 L 0 28.777344 Z M 0 0.824219 " clip-rule="nonzero"/></clipPath><clipPath id="1a11eadc7e"><path d="M 0.0234375 1.464844 L 5.894531 0.949219 L 8.296875 28.226562 L 2.425781 28.742188 Z M 0.0234375 1.464844 " clip-rule="nonzero"/></clipPath><clipPath id="9a930dce95"><rect x="0" width="9" y="0" height="29"/></clipPath><clipPath id="8fff31985f"><path d="M 7 56 L 17 56 L 17 85 L 7 85 Z M 7 56 " clip-rule="nonzero"/></clipPath><clipPath id="c80aa59f49"><path d="M 7.640625 57.292969 L 13.847656 56.746094 L 16.25 84.023438 L 10.042969 84.570312 Z M 7.640625 57.292969 " clip-rule="nonzero"/></clipPath><clipPath id="4156841355"><path d="M 0.605469 0.628906 L 9.445312 0.628906 L 9.445312 28.585938 L 0.605469 28.585938 Z M 0.605469 0.628906 " clip-rule="nonzero"/></clipPath><clipPath id="96d784df18"><path d="M 0.640625 1.292969 L 6.847656 0.746094 L 9.25 28.023438 L 3.042969 28.570312 Z M 0.640625 1.292969 " clip-rule="nonzero"/></clipPath><clipPath id="73f55c881c"><rect x="0" width="10" y="0" height="29"/></clipPath><clipPath id="4c153b90e9"><path d="M 8 73 L 19 73 L 19 102 L 8 102 Z M 8 73 " clip-rule="nonzero"/></clipPath><clipPath id="6e2e32c726"><path d="M 8.613281 73.9375 L 15.816406 73.304688 L 18.226562 100.648438 L 11.023438 101.28125 Z M 8.613281 73.9375 " clip-rule="nonzero"/></clipPath><clipPath id="ae04b91344"><path d="M 0.5625 0.113281 L 10.359375 0.113281 L 10.359375 28.308594 L 0.5625 28.308594 Z M 0.5625 0.113281 " clip-rule="nonzero"/></clipPath><clipPath id="3469bde23a"><path d="M 0.613281 0.9375 L 7.816406 0.304688 L 10.226562 27.648438 L 3.023438 28.28125 Z M 0.613281 0.9375 " clip-rule="nonzero"/></clipPath><clipPath id="631650b68f"><rect x="0" width="11" y="0" height="29"/></clipPath><clipPath id="f06675c33e"><path d="M 10 87 L 19 87 L 19 107 L 10 107 Z M 10 87 " clip-rule="nonzero"/></clipPath><clipPath id="6129656109"><path d="M 10.683594 87.621094 L 17.222656 87.285156 L 18.226562 106.625 L 11.6875 106.964844 Z M 10.683594 87.621094 " clip-rule="nonzero"/></clipPath><clipPath id="45d48fb442"><path d="M 0.472656 0.210938 L 8.359375 0.210938 L 8.359375 20 L 0.472656 20 Z M 0.472656 0.210938 " clip-rule="nonzero"/></clipPath><clipPath id="2e7c821dd4"><path d="M 0.683594 0.621094 L 7.222656 0.285156 L 8.226562 19.625 L 1.6875 19.964844 Z M 0.683594 0.621094 " clip-rule="nonzero"/></clipPath><clipPath id="fae3ce7930"><rect x="0" width="9" y="0" height="20"/></clipPath><clipPath id="8fc3447ef2"><path d="M 10 88 L 18 88 L 18 109 L 10 109 Z M 10 88 " clip-rule="nonzero"/></clipPath><clipPath id="da6d2e8294"><path d="M 10.683594 88.816406 L 16.457031 88.519531 L 17.453125 107.859375 L 11.679688 108.15625 Z M 10.683594 88.816406 " clip-rule="nonzero"/></clipPath><clipPath id="76fa346007"><path d="M 0.472656 0.40625 L 7.640625 0.40625 L 7.640625 20.238281 L 0.472656 20.238281 Z M 0.472656 0.40625 " clip-rule="nonzero"/></clipPath><clipPath id="de9d66a9b0"><path d="M 0.683594 0.816406 L 6.457031 0.519531 L 7.453125 19.859375 L 1.679688 20.15625 Z M 0.683594 0.816406 " clip-rule="nonzero"/></clipPath><clipPath id="4b3c1d1c68"><rect x="0" width="8" y="0" height="21"/></clipPath><clipPath id="0d66042bdb"><path d="M 12 89 L 18 89 L 18 109 L 12 109 Z M 12 89 " clip-rule="nonzero"/></clipPath><clipPath id="5269b5d439"><path d="M 12.007812 89.5625 L 16.457031 89.332031 L 17.453125 108.675781 L 13 108.90625 Z M 12.007812 89.5625 " clip-rule="nonzero"/></clipPath><clipPath id="d17bc2dd0c"><path d="M 0 0.125 L 5.640625 0.125 L 5.640625 19.957031 L 0 19.957031 Z M 0 0.125 " clip-rule="nonzero"/></clipPath><clipPath id="7e52f2114d"><path d="M 0.0078125 0.5625 L 4.457031 0.332031 L 5.453125 19.675781 L 1 19.90625 Z M 0.0078125 0.5625 " clip-rule="nonzero"/></clipPath><clipPath id="3737112e37"><rect x="0" width="6" y="0" height="20"/></clipPath><clipPath id="adac1fc7f4"><path d="M 2 8 L 8 8 L 8 14 L 2 14 Z M 2 8 " clip-rule="nonzero"/></clipPath><clipPath id="56f8da1263"><path d="M 3.535156 8.152344 L 7.636719 8.820312 L 6.949219 13.0625 L 2.847656 12.394531 Z M 3.535156 8.152344 " clip-rule="nonzero"/></clipPath><clipPath id="389ec6a172"><path d="M 0.828125 0.125 L 5.84375 0.125 L 5.84375 5.140625 L 0.828125 5.140625 Z M 0.828125 0.125 " clip-rule="nonzero"/></clipPath><clipPath id="fb61a485b7"><path d="M 1.535156 0.152344 L 5.636719 0.820312 L 4.949219 5.0625 L 0.847656 4.394531 Z M 1.535156 0.152344 " clip-rule="nonzero"/></clipPath><clipPath id="281f18721a"><rect x="0" width="6" y="0" height="6"/></clipPath><clipPath id="c57bba82f3"><path d="M 64 3 L 87 3 L 87 51 L 64 51 Z M 64 3 " clip-rule="nonzero"/></clipPath><clipPath id="b50b4b9d8f"><path d="M 64.007812 5.144531 L 81.121094 3.082031 L 86.585938 48.496094 L 69.472656 50.554688 Z M 64.007812 5.144531 " clip-rule="nonzero"/></clipPath><clipPath id="2fa8a9f71b"><path d="M 0 0 L 22.695312 0 L 22.695312 47.65625 L 0 47.65625 Z M 0 0 " clip-rule="nonzero"/></clipPath><clipPath id="7ef6cf22b2"><path d="M 0.0078125 2.144531 L 17.121094 0.0820312 L 22.585938 45.496094 L 5.472656 47.554688 Z M 0.0078125 2.144531 " clip-rule="nonzero"/></clipPath><clipPath id="c6b513919b"><rect x="0" width="23" y="0" height="48"/></clipPath><clipPath id="f93f6db0b4"><path d="M 66 3 L 87 3 L 87 51 L 66 51 Z M 66 3 " clip-rule="nonzero"/></clipPath><clipPath id="0550892024"><path d="M 66.113281 5.226562 L 82.140625 3.691406 L 86.5 49.222656 L 70.472656 50.757812 Z M 66.113281 5.226562 " clip-rule="nonzero"/></clipPath><clipPath id="cae22cfd2d"><path d="M 0 0.585938 L 20.695312 0.585938 L 20.695312 47.894531 L 0 47.894531 Z M 0 0.585938 " clip-rule="nonzero"/></clipPath><clipPath id="017a6b8054"><path d="M 0.113281 2.226562 L 16.140625 0.691406 L 20.5 46.222656 L 4.472656 47.757812 Z M 0.113281 2.226562 " clip-rule="nonzero"/></clipPath><clipPath id="63f5d9b83c"><rect x="0" width="21" y="0" height="48"/></clipPath><clipPath id="24b1524ddd"><path d="M 63 1 L 80 1 L 80 49 L 63 49 Z M 63 1 " clip-rule="nonzero"/></clipPath><clipPath id="3521437ad1"><path d="M 63.917969 3.386719 L 72.339844 1.984375 L 79.839844 47.105469 L 71.414062 48.507812 Z M 63.917969 3.386719 " clip-rule="nonzero"/></clipPath><clipPath id="6818c52cc1"><path d="M 0.757812 0.910156 L 17 0.910156 L 17 47.742188 L 0.757812 47.742188 Z M 0.757812 0.910156 " clip-rule="nonzero"/></clipPath><clipPath id="b54a529b20"><path d="M 0.917969 2.386719 L 9.339844 0.984375 L 16.839844 46.105469 L 8.414062 47.507812 Z M 0.917969 2.386719 " clip-rule="nonzero"/></clipPath><clipPath id="7e698f929f"><rect x="0" width="17" y="0" height="48"/></clipPath><clipPath id="bcc2b560e6"><path d="M 69 1 L 81 1 L 81 16 L 69 16 Z M 69 1 " clip-rule="nonzero"/></clipPath><clipPath id="b2249d4f3f"><path d="M 72.300781 1.988281 L 80.660156 3.730469 L 78.117188 15.917969 L 69.757812 14.171875 Z M 72.300781 1.988281 " clip-rule="nonzero"/></clipPath><clipPath id="6b75f2d20f"><path d="M 0.730469 0.910156 L 11.722656 0.910156 L 11.722656 15 L 0.730469 15 Z M 0.730469 0.910156 " clip-rule="nonzero"/></clipPath><clipPath id="56fb8d2ddf"><path d="M 3.300781 0.988281 L 11.660156 2.730469 L 9.117188 14.917969 L 0.757812 13.171875 Z M 3.300781 0.988281 " clip-rule="nonzero"/></clipPath><clipPath id="408ac68769"><rect x="0" width="12" y="0" height="15"/></clipPath><clipPath id="c64442d4fa"><path d="M 64 5 L 78 5 L 78 52 L 64 52 Z M 64 5 " clip-rule="nonzero"/></clipPath><clipPath id="51f0bec37c"><path d="M 64.539062 6.003906 L 73.035156 5.128906 L 77.722656 50.628906 L 69.226562 51.503906 Z M 64.539062 6.003906 " clip-rule="nonzero"/></clipPath><clipPath id="2401c29a8e"><path d="M 0.472656 0.0195312 L 13.855469 0.0195312 L 13.855469 46.609375 L 0.472656 46.609375 Z M 0.472656 0.0195312 " clip-rule="nonzero"/></clipPath><clipPath id="31fc4ad243"><path d="M 0.539062 1.003906 L 9.035156 0.128906 L 13.722656 45.628906 L 5.226562 46.503906 Z M 0.539062 1.003906 " clip-rule="nonzero"/></clipPath><clipPath id="b0f8d94503"><rect x="0" width="14" y="0" height="47"/></clipPath><clipPath id="e3f39f4761"><path d="M 75 46 L 86 46 L 86 53 L 75 53 Z M 75 46 " clip-rule="nonzero"/></clipPath><clipPath id="8f17509603"><path d="M 76.929688 46.140625 L 85.328125 47.6875 L 84.382812 52.816406 L 75.984375 51.269531 Z M 76.929688 46.140625 " clip-rule="nonzero"/></clipPath><clipPath id="e20958bb9e"><path d="M 0.941406 0.113281 L 10.5 0.113281 L 10.5 7 L 0.941406 7 Z M 0.941406 0.113281 " clip-rule="nonzero"/></clipPath><clipPath id="d65278a7c1"><path d="M 1.929688 0.140625 L 10.328125 1.6875 L 9.382812 6.816406 L 0.984375 5.269531 Z M 1.929688 0.140625 " clip-rule="nonzero"/></clipPath><clipPath id="f9fe757eea"><rect x="0" width="11" y="0" height="7"/></clipPath><clipPath id="8eff09a888"><path d="M 75 40 L 88 40 L 88 55 L 75 55 Z M 75 40 " clip-rule="nonzero"/></clipPath><clipPath id="a297a905e6"><path d="M 79.558594 38.191406 L 92.0625 43.167969 L 87.714844 54.09375 L 75.207031 49.117188 Z M 79.558594 38.191406 " clip-rule="nonzero"/></clipPath><clipPath id="f259dcca94"><path d="M 85.800781 40.675781 L 87.695312 54.085938 L 75.207031 49.117188 Z M 85.800781 40.675781 " clip-rule="nonzero"/></clipPath><clipPath id="e95482feef"><path d="M 0 0.621094 L 12.890625 0.621094 L 12.890625 14.238281 L 0 14.238281 Z M 0 0.621094 " clip-rule="nonzero"/></clipPath><clipPath id="b0731c21fc"><path d="M 4.558594 -1.808594 L 17.0625 3.167969 L 12.714844 14.09375 L 0.207031 9.117188 Z M 4.558594 -1.808594 " clip-rule="nonzero"/></clipPath><clipPath id="7e9bfff4d2"><path d="M 10.800781 0.675781 L 12.695312 14.085938 L 0.207031 9.117188 Z M 10.800781 0.675781 " clip-rule="nonzero"/></clipPath><clipPath id="b8bc2716d4"><rect x="0" width="13" y="0" height="15"/></clipPath><clipPath id="b90fad1c7f"><path d="M 34 15 L 40 15 L 40 22 L 34 22 Z M 34 15 " clip-rule="nonzero"/></clipPath><clipPath id="340bc5c4d9"><path d="M 36.539062 15.917969 L 39.421875 18.507812 L 36.929688 21.285156 L 34.042969 18.695312 Z M 36.539062 15.917969 " clip-rule="nonzero"/></clipPath><clipPath id="2b49ab8c51"><path d="M 0 0.769531 L 5.625 0.769531 L 5.625 6.503906 L 0 6.503906 Z M 0 0.769531 " clip-rule="nonzero"/></clipPath><clipPath id="820ec6453a"><path d="M 2.539062 0.917969 L 5.421875 3.507812 L 2.929688 6.285156 L 0.0429688 3.695312 Z M 2.539062 0.917969 " clip-rule="nonzero"/></clipPath><clipPath id="1a5bb36892"><rect x="0" width="6" y="0" height="7"/></clipPath><clipPath id="0cac7d0f61"><path d="M 34 15 L 41 15 L 41 20 L 34 20 Z M 34 15 " clip-rule="nonzero"/></clipPath><clipPath id="b54b9de9ed"><path d="M 34.835938 15.945312 L 39.402344 15.0625 L 40.113281 18.726562 L 35.542969 19.609375 Z M 34.835938 15.945312 " clip-rule="nonzero"/></clipPath><clipPath id="f735d824b4"><path d="M 0.605469 0.0546875 L 6.339844 0.0546875 L 6.339844 4.832031 L 0.605469 4.832031 Z M 0.605469 0.0546875 " clip-rule="nonzero"/></clipPath><clipPath id="3ccda17747"><path d="M 0.835938 0.945312 L 5.402344 0.0625 L 6.113281 3.726562 L 1.542969 4.609375 Z M 0.835938 0.945312 " clip-rule="nonzero"/></clipPath><clipPath id="07a7d3768f"><rect x="0" width="7" y="0" height="5"/></clipPath><clipPath id="43b60edf5d"><path d="M 0.199219 0 L 83 0 L 83 60 L 0.199219 60 Z M 0.199219 0 " clip-rule="nonzero"/></clipPath><clipPath id="56c75803e7"><path d="M 0.199219 0 L 82 0 L 82 61 L 0.199219 61 Z M 0.199219 0 " clip-rule="nonzero"/></clipPath><clipPath id="b81f55de1a"><path d="M 18 15 L 32 15 L 32 62 L 18 62 Z M 18 15 " clip-rule="nonzero"/></clipPath><clipPath id="02ff32cb72"><path d="M 18.511719 15.929688 L 26.574219 15.003906 L 31.785156 60.449219 L 23.71875 61.371094 Z M 18.511719 15.929688 " clip-rule="nonzero"/></clipPath><clipPath id="2509b00d1e"><path d="M 0.359375 0 L 13.976562 0 L 13.976562 46.40625 L 0.359375 46.40625 Z M 0.359375 0 " clip-rule="nonzero"/></clipPath><clipPath id="d40e4b68a1"><path d="M 0.511719 0.929688 L 8.574219 0.00390625 L 13.785156 45.449219 L 5.71875 46.371094 Z M 0.511719 0.929688 " clip-rule="nonzero"/></clipPath><clipPath id="c988ae2f32"><rect x="0" width="14" y="0" height="47"/></clipPath><clipPath id="a1ccab85b6"><path d="M 0.199219 23 L 63 23 L 63 97 L 0.199219 97 Z M 0.199219 23 " clip-rule="nonzero"/></clipPath><clipPath id="79d300a2ad"><path d="M 0.199219 0 L 56 0 L 56 50 L 0.199219 50 Z M 0.199219 0 " clip-rule="nonzero"/></clipPath><clipPath id="b4159b5b1d"><path d="M 0.199219 0 L 59 0 L 59 52 L 0.199219 52 Z M 0.199219 0 " clip-rule="nonzero"/></clipPath><clipPath id="fd7f6a101c"><path d="M 0.199219 6 L 29 6 L 29 69 L 0.199219 69 Z M 0.199219 6 " clip-rule="nonzero"/></clipPath><clipPath id="c683aa92c2"><path d="M 0.199219 30 L 32 30 L 32 93 L 0.199219 93 Z M 0.199219 30 " clip-rule="nonzero"/></clipPath><clipPath id="94133b301f"><path d="M 35 0 L 89.800781 0 L 89.800781 47 L 35 47 Z M 35 0 " clip-rule="nonzero"/></clipPath><clipPath id="afcdb4ffb0"><path d="M 0.199219 0 L 24 0 L 24 29 L 0.199219 29 Z M 0.199219 0 " clip-rule="nonzero"/></clipPath><clipPath id="c47dab9315"><path d="M 64 0 L 89.800781 0 L 89.800781 51 L 64 51 Z M 64 0 " clip-rule="nonzero"/></clipPath><clipPath id="f1ef0fa405"><path d="M 65 5 L 89.800781 5 L 89.800781 69 L 65 69 Z M 65 5 " clip-rule="nonzero"/></clipPath></defs><g clip-path="url(#e0be7fc2d7)"><path stroke-linecap="butt" transform="matrix(0.664895, -0.0213431, 0.0264177, 0.537175, 140.768533, -15.389176)" fill="none" stroke-linejoin="miter" d="M -208.832859 55.059424 C -208.288002 71.362712 -206.838943 101.431152 -205.664515 131.314156 C -204.484222 161.197393 -203.578848 190.902454 -203.130441 205.936611 C -202.676167 220.971001 -202.672705 221.327458 -201.591199 222.053982 C -200.503827 222.780738 -198.326104 223.863505 -196.247522 223.597043 C -194.162786 223.323554 -192.171037 221.69381 -192.350396 202.401775 C -192.530042 183.117001 -194.886373 146.162445 -196.607179 116.279547 C -198.327984 86.39665 -199.412688 63.570892 -199.957828 51.710684 C -200.502681 39.843215 -200.502105 38.941531 -201.8593 37.760472 C -203.216784 36.586673 -205.938194 35.140528 -207.475494 35.68301 C -209.012794 36.225492 -209.378005 38.763396 -208.832859 55.059424 Z M -208.832859 55.059424 " stroke="#ffffff" stroke-width="1.459" stroke-opacity="1" stroke-miterlimit="4"/></g><g clip-path="url(#0a3d1aa2c3)"><path stroke-linecap="butt" transform="matrix(0.66542, 0, 0, 0.537599, 164.545202, -5.610275)" fill="none" stroke-linejoin="miter" d="M -138.338235 14.090647 C -142.25376 13.967124 -146.832636 14.650137 -152.139436 17.026153 C -164.279327 22.461198 -180.217336 36.768154 -193.619353 39.391217 C -207.02137 42.021546 -217.887394 32.960716 -225.137281 30.156 C -228.600789 28.811771 -231.230708 28.913497 -233.42622 29.959816 L -226.587258 118.395551 C -224.098228 117.436426 -221.315681 117.283838 -216.713324 120.081287 C -210.461397 123.888725 -200.863369 133.123941 -188.459312 130.137573 C -176.049385 127.143939 -160.833429 111.935986 -147.795374 106.95144 C -134.751449 101.974159 -123.885424 107.227552 -118.091386 109.036811 C -117.345851 109.269326 -116.688371 109.443713 -116.089595 109.55997 L -123.227945 17.338595 C -124.161331 17.178741 -125.200384 16.931694 -126.421417 16.575655 C -129.380075 15.703722 -133.307342 14.235969 -138.338235 14.090647 Z M -138.338235 14.090647 " stroke="#ffffff" stroke-width="1.459" stroke-opacity="1" stroke-miterlimit="4"/></g><path stroke-linecap="butt" transform="matrix(0.66542, 0, 0, 0.537599, 164.545202, -5.610275)" fill="none" stroke-linejoin="miter" d="M -180.152762 35.532916 L -171.135899 121.788821 L -180.105799 33.149635 Z M -180.152762 35.532916 " stroke="#ffffff" stroke-width="1.459" stroke-opacity="1" stroke-miterlimit="4"/><path stroke-linecap="butt" transform="matrix(0.66542, 0, 0, 0.537599, 164.545202, -5.610275)" fill="none" stroke-linejoin="miter" d="M -206.581094 41.425726 L -197.564231 130.304694 L -206.534131 38.969783 Z M -206.581094 41.425726 " stroke="#ffffff" stroke-width="1.459" stroke-opacity="1" stroke-miterlimit="4"/><path stroke-linecap="butt" transform="matrix(0.66542, 0, 0, 0.537599, 164.545202, -5.610275)" fill="none" stroke-linejoin="miter" d="M -197.851878 43.896201 L -198.174747 43.59829 L -196.589752 59.365733 L -196.372549 59.067823 Z M -195.304145 70.083235 L -195.527218 69.872518 L -193.953963 85.47284 L -193.818945 85.291188 Z M -192.721189 96.589977 L -192.844466 96.47372 L -191.324045 111.587213 L -191.265341 111.507286 Z M -190.202807 122.450037 L -190.232159 122.420972 L -189.451402 130.18117 Z M -190.202807 122.450037 " stroke="#ffffff" stroke-width="1.459" stroke-opacity="1" stroke-miterlimit="4"/><path stroke-linecap="butt" transform="matrix(0.66542, 0, 0, 0.537599, 164.545202, -5.610275)" fill="none" stroke-linejoin="miter" d="M -186.909539 42.886212 L -187.173705 43.205921 L -185.782431 56.989718 L -185.512395 57.273096 Z M -184.350065 69.189504 L -184.532046 69.436551 L -183.152513 83.104091 L -182.982273 83.278477 Z M -181.790591 95.500062 L -181.890387 95.616319 L -180.522595 109.211198 L -180.44628 109.291125 Z M -179.248728 121.636233 L -179.266339 121.658031 L -178.843673 125.83604 L -178.837803 125.828774 Z M -179.248728 121.636233 " stroke="#ffffff" stroke-width="1.459" stroke-opacity="1" stroke-miterlimit="4"/><path stroke-linecap="butt" transform="matrix(-0.4619, -0.386981, 0.388841, -0.436261, 164.545202, -5.610275)" fill="none" stroke-linejoin="miter" d="M 75.597749 -225.222607 L 91.519609 -225.225594 L 91.521292 -209.110009 L 75.595117 -209.112148 Z M 75.597749 -225.222607 " stroke="#ffffff" stroke-width="1.47" stroke-opacity="1" stroke-miterlimit="4"/><path stroke-linecap="butt" transform="matrix(-0.4619, -0.386981, 0.388841, -0.436261, 164.545202, -5.610275)" fill="none" stroke-linejoin="miter" d="M 93.271618 -208.72857 L 109.202635 -208.730725 L 109.200004 -192.620267 L 93.278143 -192.61728 Z M 93.271618 -208.72857 " stroke="#ffffff" stroke-width="1.47" stroke-opacity="1" stroke-miterlimit="4"/><path stroke-linecap="butt" transform="matrix(-0.4619, -0.386981, 0.388841, -0.436261, 164.545202, -5.610275)" fill="none" stroke-linejoin="miter" d="M 110.954645 -192.233701 L 126.88082 -192.231562 L 126.878189 -176.121103 L 110.952013 -176.123243 Z M 110.954645 -192.233701 " stroke="#ffffff" stroke-width="1.47" stroke-opacity="1" stroke-miterlimit="4"/><path stroke-linecap="butt" transform="matrix(0.66542, 0, 0, 0.537599, 164.545202, -5.610275)" fill="none" stroke-linejoin="miter" d="M -183.087939 36.353986 L -186.563188 36.797218 C -189.198977 38.170512 -191.764321 39.253161 -194.218129 39.841715 C -196.695418 40.444802 -199.061171 40.531995 -201.309516 40.29948 L -191.940432 50.014259 L -182.524385 36.935274 Z M -183.087939 36.353986 " stroke="#ffffff" stroke-width="1.459" stroke-opacity="1" stroke-miterlimit="4"/><path stroke-linecap="butt" transform="matrix(0.66542, 0, 0, 0.537599, 164.545202, -5.610275)" fill="none" stroke-linejoin="miter" d="M -150.88905 18.406712 L -142.605982 105.970516 L -150.847958 15.9871 Z M -150.88905 18.406712 " stroke="#ffffff" stroke-width="1.459" stroke-opacity="1" stroke-miterlimit="4"/><path stroke-linecap="butt" transform="matrix(0.66542, 0, 0, 0.537599, 164.545202, -5.610275)" fill="none" stroke-linejoin="miter" d="M -218.891225 35.707303 L -210.790137 123.837862 L -218.850132 33.273158 Z M -218.891225 35.707303 " stroke="#ffffff" stroke-width="1.459" stroke-opacity="1" stroke-miterlimit="4"/><g clip-path="url(#edf2b939de)"><g clip-path="url(#a6d9a19d26)"><g transform="matrix(1, 0, 0, 1, 31, 22)"><g clip-path="url(#3cec09d7ef)"><g clip-path="url(#09d6a07a1b)"><g clip-path="url(#164cf1a230)"><path fill="#ffffff" d="M 6.542969 0.542969 L 13.339844 6.644531 L 7.328125 13.339844 L 0.535156 7.234375 Z M 6.542969 0.542969 " fill-opacity="1" fill-rule="nonzero"/></g></g></g></g></g></g><g clip-path="url(#1b775c9dfa)"><g clip-path="url(#afbdd506ba)"><g transform="matrix(1, 0, 0, 1, 32, 36)"><g clip-path="url(#9387db221d)"><g clip-path="url(#aa1d961ec0)"><g clip-path="url(#0cdeb1d958)"><path fill="#ffffff" d="M 6.617188 0.203125 L 14.105469 6.511719 L 8.234375 13.484375 L 0.742188 7.175781 Z M 6.617188 0.203125 " fill-opacity="1" fill-rule="nonzero"/></g></g></g></g></g></g><g clip-path="url(#6864982b5d)"><g clip-path="url(#fa3bef102a)"><g transform="matrix(1, 0, 0, 1, 34, 50)"><g clip-path="url(#6cc1335835)"><g clip-path="url(#532fbfe15a)"><g clip-path="url(#8a2ea7b5fc)"><path fill="#ffffff" d="M 6.707031 0.226562 L 14.195312 6.535156 L 8.324219 13.503906 L 0.835938 7.195312 Z M 6.707031 0.226562 " fill-opacity="1" fill-rule="nonzero"/></g></g></g></g></g></g><g clip-path="url(#ed752518c3)"><g clip-path="url(#15a57dc9e5)"><g transform="matrix(1, 0, 0, 1, 2, 9)"><g clip-path="url(#f042b75246)"><g clip-path="url(#115368c4b6)"><g clip-path="url(#821ef24c3d)"><path fill="#ffffff" d="M 0.53125 1.410156 L 6.402344 0.890625 L 8.804688 28.164062 L 2.933594 28.679688 Z M 0.53125 1.410156 " fill-opacity="1" fill-rule="nonzero"/></g></g></g></g></g></g><g clip-path="url(#03207a7049)"><g clip-path="url(#e406e8934f)"><g transform="matrix(1, 0, 0, 1, 5, 30)"><g clip-path="url(#9a930dce95)"><g clip-path="url(#8a862bf195)"><g clip-path="url(#1a11eadc7e)"><path fill="#ffffff" d="M 0.0234375 1.464844 L 5.894531 0.949219 L 8.296875 28.21875 L 2.425781 28.734375 Z M 0.0234375 1.464844 " fill-opacity="1" fill-rule="nonzero"/></g></g></g></g></g></g><g clip-path="url(#8fff31985f)"><g clip-path="url(#c80aa59f49)"><g transform="matrix(1, 0, 0, 1, 7, 56)"><g clip-path="url(#73f55c881c)"><g clip-path="url(#4156841355)"><g clip-path="url(#96d784df18)"><path fill="#ffffff" d="M 0.640625 1.292969 L 6.847656 0.746094 L 9.25 28.027344 L 3.042969 28.574219 Z M 0.640625 1.292969 " fill-opacity="1" fill-rule="nonzero"/></g></g></g></g></g></g><g clip-path="url(#4c153b90e9)"><g clip-path="url(#6e2e32c726)"><g transform="matrix(1, 0, 0, 1, 8, 73)"><g clip-path="url(#631650b68f)"><g clip-path="url(#ae04b91344)"><g clip-path="url(#3469bde23a)"><path fill="#ffffff" d="M 0.613281 0.9375 L 7.816406 0.304688 L 10.226562 27.660156 L 3.023438 28.296875 Z M 0.613281 0.9375 " fill-opacity="1" fill-rule="nonzero"/></g></g></g></g></g></g><g clip-path="url(#f06675c33e)"><g clip-path="url(#6129656109)"><g transform="matrix(1, 0, 0, 1, 10, 87)"><g clip-path="url(#fae3ce7930)"><g clip-path="url(#45d48fb442)"><g clip-path="url(#2e7c821dd4)"><path fill="#ffffff" d="M 0.683594 0.621094 L 7.222656 0.285156 L 8.226562 19.617188 L 1.6875 19.957031 Z M 0.683594 0.621094 " fill-opacity="1" fill-rule="nonzero"/></g></g></g></g></g></g><g clip-path="url(#8fc3447ef2)"><g clip-path="url(#da6d2e8294)"><g transform="matrix(1, 0, 0, 1, 10, 88)"><g clip-path="url(#4b3c1d1c68)"><g clip-path="url(#76fa346007)"><g clip-path="url(#de9d66a9b0)"><path fill="#ffffff" d="M 0.683594 0.816406 L 6.457031 0.519531 L 7.453125 19.867188 L 1.679688 20.164062 Z M 0.683594 0.816406 " fill-opacity="1" fill-rule="nonzero"/></g></g></g></g></g></g><g clip-path="url(#0d66042bdb)"><g clip-path="url(#5269b5d439)"><g transform="matrix(1, 0, 0, 1, 12, 89)"><g clip-path="url(#3737112e37)"><g clip-path="url(#d17bc2dd0c)"><g clip-path="url(#7e52f2114d)"><path fill="#ffffff" d="M 0.0078125 0.5625 L 4.457031 0.332031 L 5.453125 19.683594 L 1.003906 19.910156 Z M 0.0078125 0.5625 " fill-opacity="1" fill-rule="nonzero"/></g></g></g></g></g></g><g clip-path="url(#adac1fc7f4)"><g clip-path="url(#56f8da1263)"><g transform="matrix(1, 0, 0, 1, 2, 8)"><g clip-path="url(#281f18721a)"><g clip-path="url(#389ec6a172)"><g clip-path="url(#fb61a485b7)"><path fill="#ffffff" d="M 1.535156 0.152344 L 5.636719 0.820312 L 4.949219 5.066406 L 0.847656 4.398438 Z M 1.535156 0.152344 " fill-opacity="1" fill-rule="nonzero"/></g></g></g></g></g></g><g clip-path="url(#c57bba82f3)"><g clip-path="url(#b50b4b9d8f)"><g transform="matrix(1, 0, 0, 1, 64, 3)"><g clip-path="url(#c6b513919b)"><g clip-path="url(#2fa8a9f71b)"><g clip-path="url(#7ef6cf22b2)"><path fill="#ffffff" d="M 0.0078125 2.144531 L 17.121094 0.0820312 L 22.585938 45.472656 L 5.472656 47.53125 Z M 0.0078125 2.144531 " fill-opacity="1" fill-rule="nonzero"/></g></g></g></g></g></g><g clip-path="url(#f93f6db0b4)"><g clip-path="url(#0550892024)"><g transform="matrix(1, 0, 0, 1, 66, 3)"><g clip-path="url(#63f5d9b83c)"><g clip-path="url(#cae22cfd2d)"><g clip-path="url(#017a6b8054)"><path fill="#ffffff" d="M 0.113281 2.226562 L 16.140625 0.691406 L 20.496094 46.207031 L 4.46875 47.742188 Z M 0.113281 2.226562 " fill-opacity="1" fill-rule="nonzero"/></g></g></g></g></g></g><g clip-path="url(#24b1524ddd)"><g clip-path="url(#3521437ad1)"><g transform="matrix(1, 0, 0, 1, 63, 1)"><g clip-path="url(#7e698f929f)"><g clip-path="url(#6818c52cc1)"><g clip-path="url(#b54a529b20)"><path fill="#ffffff" d="M 0.917969 2.386719 L 9.339844 0.984375 L 16.835938 46.097656 L 8.414062 47.496094 Z M 0.917969 2.386719 " fill-opacity="1" fill-rule="nonzero"/></g></g></g></g></g></g><g clip-path="url(#bcc2b560e6)"><g clip-path="url(#b2249d4f3f)"><g transform="matrix(1, 0, 0, 1, 69, 1)"><g clip-path="url(#408ac68769)"><g clip-path="url(#6b75f2d20f)"><g clip-path="url(#56fb8d2ddf)"><path fill="#ffffff" d="M 3.300781 0.988281 L 11.660156 2.730469 L 9.117188 14.910156 L 0.761719 13.167969 Z M 3.300781 0.988281 " fill-opacity="1" fill-rule="nonzero"/></g></g></g></g></g></g><g clip-path="url(#c64442d4fa)"><g clip-path="url(#51f0bec37c)"><g transform="matrix(1, 0, 0, 1, 64, 5)"><g clip-path="url(#b0f8d94503)"><g clip-path="url(#2401c29a8e)"><g clip-path="url(#31fc4ad243)"><path fill="#ffffff" d="M 0.539062 1.003906 L 9.035156 0.128906 L 13.722656 45.621094 L 5.226562 46.496094 Z M 0.539062 1.003906 " fill-opacity="1" fill-rule="nonzero"/></g></g></g></g></g></g><g clip-path="url(#e3f39f4761)"><g clip-path="url(#8f17509603)"><g transform="matrix(1, 0, 0, 1, 75, 46)"><g clip-path="url(#f9fe757eea)"><g clip-path="url(#e20958bb9e)"><g clip-path="url(#d65278a7c1)"><path fill="#ffffff" d="M 1.929688 0.140625 L 10.328125 1.6875 L 9.382812 6.816406 L 0.984375 5.269531 Z M 1.929688 0.140625 " fill-opacity="1" fill-rule="nonzero"/></g></g></g></g></g></g><g clip-path="url(#8eff09a888)"><g clip-path="url(#a297a905e6)"><g clip-path="url(#f259dcca94)"><g transform="matrix(1, 0, 0, 1, 75, 40)"><g clip-path="url(#b8bc2716d4)"><g clip-path="url(#e95482feef)"><g clip-path="url(#b0731c21fc)"><g clip-path="url(#7e9bfff4d2)"><path fill="#ffffff" d="M 4.558594 -1.808594 L 17.0625 3.167969 L 12.714844 14.09375 L 0.207031 9.117188 Z M 4.558594 -1.808594 " fill-opacity="1" fill-rule="nonzero"/></g></g></g></g></g></g></g></g><g clip-path="url(#b90fad1c7f)"><g clip-path="url(#340bc5c4d9)"><g transform="matrix(1, 0, 0, 1, 34, 15)"><g clip-path="url(#1a5bb36892)"><g clip-path="url(#2b49ab8c51)"><g clip-path="url(#820ec6453a)"><path fill="#ffffff" d="M 2.539062 0.917969 L 5.425781 3.511719 L 2.929688 6.289062 L 0.0429688 3.695312 Z M 2.539062 0.917969 " fill-opacity="1" fill-rule="nonzero"/></g></g></g></g></g></g><g clip-path="url(#0cac7d0f61)"><g clip-path="url(#b54b9de9ed)"><g transform="matrix(1, 0, 0, 1, 34, 15)"><g clip-path="url(#07a7d3768f)"><g clip-path="url(#f735d824b4)"><g clip-path="url(#3ccda17747)"><path fill="#ffffff" d="M 0.835938 0.945312 L 5.402344 0.0625 L 6.113281 3.726562 L 1.542969 4.609375 Z M 0.835938 0.945312 " fill-opacity="1" fill-rule="nonzero"/></g></g></g></g></g></g><g clip-path="url(#43b60edf5d)"><path stroke-linecap="butt" transform="matrix(0.384802, 0.639891, -0.639891, 0.384802, 42.102963, 13.138232)" fill="none" stroke-linejoin="miter" d="M -0.000505531 5.001514 L 2.686587 4.999704 " stroke="#ffffff" stroke-width="10" stroke-opacity="1" stroke-miterlimit="4"/></g><g clip-path="url(#56c75803e7)"><path stroke-linecap="butt" transform="matrix(0.465001, 0.584215, -0.584215, 0.465001, 40.847071, 14.230311)" fill="none" stroke-linejoin="miter" d="M -0.000838323 4.999701 L 2.687166 4.999572 " stroke="#ffffff" stroke-width="10" stroke-opacity="1" stroke-miterlimit="4"/></g><g clip-path="url(#b81f55de1a)"><g clip-path="url(#02ff32cb72)"><g transform="matrix(1, 0, 0, 1, 18, 15)"><g clip-path="url(#c988ae2f32)"><g clip-path="url(#2509b00d1e)"><g clip-path="url(#d40e4b68a1)"><path fill="#ffffff" d="M 0.511719 0.929688 L 8.574219 0.00390625 L 13.785156 45.453125 L 5.722656 46.378906 Z M 0.511719 0.929688 " fill-opacity="1" fill-rule="nonzero"/></g></g></g></g></g></g><path stroke-linecap="butt" transform="matrix(0.0936096, 0.74079, -0.74079, 0.0936096, 29.531903, 37.821515)" fill="none" stroke-linejoin="miter" d="M -0.00117114 2.500176 L 34.305433 2.500837 " stroke="#ffffff" stroke-width="5" stroke-opacity="1" stroke-miterlimit="4"/><g clip-path="url(#a1ccab85b6)"><path stroke-linecap="butt" transform="matrix(-0.280329, 0.692061, -0.692061, -0.280329, 31.929538, 58.569387)" fill="none" stroke-linejoin="miter" d="M 0.00199621 4.000834 L 6.955785 4.000646 " stroke="#ffffff" stroke-width="8" stroke-opacity="1" stroke-miterlimit="4"/></g><g clip-path="url(#79d300a2ad)"><path stroke-linecap="butt" transform="matrix(-0.349189, 0.66, -0.66, -0.349189, 24.579563, 15.14071)" fill="none" stroke-linejoin="miter" d="M -0.00324387 3.998924 L 2.891624 4.00023 " stroke="#ffffff" stroke-width="8" stroke-opacity="1" stroke-miterlimit="4"/></g><g clip-path="url(#b4159b5b1d)"><path stroke-linecap="butt" transform="matrix(-0.208403, 0.717009, -0.717009, -0.208403, 27.542758, 15.238267)" fill="none" stroke-linejoin="miter" d="M 0.001654 3.998043 L 4.229946 4.000309 " stroke="#ffffff" stroke-width="8" stroke-opacity="1" stroke-miterlimit="4"/></g><path stroke-linecap="butt" transform="matrix(0.174619, 0.725976, -0.725976, 0.174619, 22.210813, 13.668293)" fill="none" stroke-linejoin="miter" d="M -0.00280896 2.000768 L 4.231428 2.002276 " stroke="#ffffff" stroke-width="4" stroke-opacity="1" stroke-miterlimit="4"/><path stroke-linecap="butt" transform="matrix(-0.116528, 0.737533, -0.737533, -0.116528, 32.999348, 63.317012)" fill="none" stroke-linejoin="miter" d="M 0.00203012 2.498685 L 1.284378 2.502637 " stroke="#ffffff" stroke-width="5" stroke-opacity="1" stroke-miterlimit="4"/><path stroke-linecap="butt" transform="matrix(-0.280329, 0.692061, -0.692061, -0.280329, 31.455698, 58.684661)" fill="none" stroke-linejoin="miter" d="M 0.00187308 2.001066 L 6.955662 2.000877 " stroke="#ffffff" stroke-width="4" stroke-opacity="1" stroke-miterlimit="4"/><path stroke-linecap="butt" transform="matrix(-0.0917848, -0.741019, 0.741019, -0.0917848, 28.570451, 52.375241)" fill="none" stroke-linejoin="miter" d="M 0.00063386 1.997775 L 38.397806 1.998909 " stroke="#ffffff" stroke-width="4" stroke-opacity="1" stroke-miterlimit="4"/><g clip-path="url(#fd7f6a101c)"><path stroke-linecap="butt" transform="matrix(-0.0917848, -0.741019, 0.741019, -0.0917848, 10.188763, 52.095488)" fill="none" stroke-linejoin="miter" d="M 0.00216511 2.001718 L 38.399981 1.99766 " stroke="#ffffff" stroke-width="4" stroke-opacity="1" stroke-miterlimit="4"/></g><path stroke-linecap="butt" transform="matrix(-0.53563, -0.520224, 0.520224, -0.53563, 42.491421, 30.687044)" fill="none" stroke-linejoin="miter" d="M -0.00071594 1.998072 L 10.753974 2.003314 " stroke="#ffffff" stroke-width="4" stroke-opacity="1" stroke-miterlimit="4"/><g clip-path="url(#c683aa92c2)"><path stroke-linecap="butt" transform="matrix(-0.107623, -0.738885, 0.738885, -0.107623, 13.312682, 75.771452)" fill="none" stroke-linejoin="miter" d="M 0.00228103 1.998452 L 38.399551 1.997919 " stroke="#ffffff" stroke-width="4" stroke-opacity="1" stroke-miterlimit="4"/></g><path stroke-linecap="butt" transform="matrix(0.4331, -0.608242, 0.608242, 0.4331, 32.744715, 17.116761)" fill="none" stroke-linejoin="miter" d="M -0.00174629 2.000815 L 2.958112 1.999725 " stroke="#ffffff" stroke-width="4" stroke-opacity="1" stroke-miterlimit="4"/><path stroke-linecap="butt" transform="matrix(0.4331, -0.608242, 0.608242, 0.4331, 31.156154, 17.072445)" fill="none" stroke-linejoin="miter" d="M 0.0000488367 1.997428 L 2.962942 2.000599 " stroke="#ffffff" stroke-width="4" stroke-opacity="1" stroke-miterlimit="4"/><path stroke-linecap="butt" transform="matrix(0.4331, -0.608242, 0.608242, 0.4331, 32.9781, 18.63291)" fill="none" stroke-linejoin="miter" d="M -0.000405279 2.001487 L 2.959453 2.000397 " stroke="#ffffff" stroke-width="4" stroke-opacity="1" stroke-miterlimit="4"/><path stroke-linecap="butt" transform="matrix(-0.563705, -0.489663, 0.489663, -0.563705, 44.497351, 44.369983)" fill="none" stroke-linejoin="miter" d="M 0.000454509 2.000289 L 11.989464 2.001214 " stroke="#ffffff" stroke-width="4" stroke-opacity="1" stroke-miterlimit="4"/><g clip-path="url(#94133b301f)"><path stroke-linecap="butt" transform="matrix(0.109414, -0.738621, 0.738621, 0.109414, 73.876639, 4.131944)" fill="none" stroke-linejoin="miter" d="M -0.000779299 5.000882 L 2.685621 4.99958 " stroke="#ffffff" stroke-width="10" stroke-opacity="1" stroke-miterlimit="4"/></g><path stroke-linecap="butt" transform="matrix(-0.249493, -0.703766, 0.703766, -0.249493, 66.9359, 4.679277)" fill="none" stroke-linejoin="miter" d="M 0.000620695 2.000671 L 2.687789 1.998617 " stroke="#ffffff" stroke-width="4" stroke-opacity="1" stroke-miterlimit="4"/><g clip-path="url(#afcdb4ffb0)"><path stroke-linecap="butt" transform="matrix(-0.249493, -0.703766, 0.703766, -0.249493, 5.327664, 11.835231)" fill="none" stroke-linejoin="miter" d="M 0.000757 1.999102 L 2.686178 2.001978 " stroke="#ffffff" stroke-width="4" stroke-opacity="1" stroke-miterlimit="4"/></g><g clip-path="url(#c47dab9315)"><path stroke-linecap="butt" transform="matrix(0.0703592, 0.743359, -0.743359, 0.0703592, 82.810169, 4.187181)" fill="none" stroke-linejoin="miter" d="M 0.000397422 1.999005 L 40.037131 1.999739 " stroke="#ffffff" stroke-width="4" stroke-opacity="1" stroke-miterlimit="4"/></g><g clip-path="url(#f1ef0fa405)"><path stroke-linecap="butt" transform="matrix(0.0703592, 0.743359, -0.743359, 0.0703592, 83.81267, 22.154505)" fill="none" stroke-linejoin="miter" d="M 0.00198398 2.002519 L 40.034002 1.997552 " stroke="#ffffff" stroke-width="4" stroke-opacity="1" stroke-miterlimit="4"/></g></svg>