<svg width="210" height="200" viewBox="0 0 210 200" fill="none" xmlns="http://www.w3.org/2000/svg">
<rect width="210" height="200" stroke="black"/>
<g clip-path="url(#clip0_5_2)">
<path d="M89.8652 113.228C88.0533 113.228 86.3156 112.509 85.0344 111.229C83.7532 109.949 83.0334 108.213 83.0334 106.403L83.0334 91M55.0183 91.5V106.408C55.0183 108.218 54.2985 109.954 53.0173 111.234C51.7361 112.514 51.3119 113.228 49.5 113.228M33 113.228C24.8402 113.229 25.5825 116.123 19.3537 121.389C13.1249 126.655 8.96597 133.956 7.61562 141.995L7.43994 143.029V182.224C7.43994 184.629 8.39621 186.935 10.0984 188.636C11.8006 190.336 14.1092 191.291 16.5164 191.291H121.628" stroke="white" stroke-width="8" stroke-linecap="round" stroke-linejoin="round"/>
<path d="M35.5 56C31.5 56.5 29.8354 56.9739 26.6469 59.8273C20.025 64.8485 12.3197 75.2664 21.6061 91.5148C30.8924 107.763 38.7684 105.852 31.6829 127.102C29.4772 132.294 43.9947 123.173 47.1666 115.778C50.3385 108.382 47.7425 91.2856 41.2084 83.4125C34.6743 75.5394 29.5 67 36.5 60.5C35.7032 58.5695 35.7133 57.6819 35.5 56Z" stroke="white" stroke-width="5" stroke-linecap="round" stroke-linejoin="round"/>
<path d="M120 84.5C110.709 100.748 106 109.5 105 114M102 60.5C107.5 67.5 103.719 75.5979 97.1849 83.4613C90.6508 91.3246 88.0499 108.382 91.2218 115.778C93.5 119 94 119 94 119" stroke="white" stroke-width="5" stroke-linecap="round" stroke-linejoin="round"/>
<path d="M94.8426 48.9706C95.5296 48.7704 96.2502 48.7124 96.9604 48.8C98.8938 49.3798 100.527 50.6851 101.518 52.4421C102.509 54.199 102.78 56.271 102.275 58.2234C101.596 62.9034 98.1218 66.272 94.5108 65.7504C94.379 65.7309 94.2619 65.6724 94.1301 65.6431C91.1388 84.2559 81.0473 97.9693 69.038 97.9693C57.0288 97.9693 46.9421 84.2559 43.9508 65.6431C43.8191 65.6724 43.7019 65.7504 43.5653 65.7504C39.9591 66.272 36.4847 62.9034 35.8064 58.2234C35.3006 56.2723 35.5704 54.2014 36.5593 52.4447C37.5481 50.688 37.0685 50.5818 39 50" stroke="white" stroke-width="8" stroke-linecap="round" stroke-linejoin="round"/>
<path d="M101.777 39.8446C101.777 43.4057 101.143 46.9384 99.903 50.2771C99.1033 49.497 98.0797 48.9857 96.9751 48.8146C96.2729 48.7099 95.5564 48.753 94.8719 48.9414C94.8719 48.9414 91.5048 27.35 86.7031 29.7095C80.1397 32.9319 76.27 53.6945 46.298 57.809C40.3739 58.2624 41.4182 45.1779 38.1487 50.2625C36.9163 46.9271 36.2852 43.4 36.2846 39.8446C36.4918 31.3717 40.0564 23.3272 46.1955 17.4774C52.3347 11.6277 60.5466 8.45094 69.0283 8.64463C77.5104 8.45093 85.7229 11.6276 91.8628 17.4771C98.0028 23.3267 101.568 31.3712 101.777 39.8446Z" stroke="white" stroke-width="8" stroke-linecap="round" stroke-linejoin="round"/>
<path d="M13.974 127.092C13.974 127.092 31.2828 142.244 69.0283 142.244C72.5 142.244 79 141.5 79 141.5" stroke="white" stroke-width="8" stroke-linecap="round" stroke-linejoin="round"/>
<path d="M154.904 91.5L154.904 106.403C154.904 108.213 155.623 109.949 156.905 111.229C158.186 112.509 159.923 113.228 161.735 113.228H168.294C176.454 113.229 184.349 116.118 190.578 121.384C196.807 126.65 200.966 133.951 202.316 141.991L202.492 143.029L202.56 143.034V182.229C202.56 184.634 201.604 186.94 199.902 188.64C198.199 190.341 195.891 191.296 193.484 191.296H88.4159C86.0087 191.296 83.7 190.341 81.9978 188.64C80.2957 186.94 79.3394 184.634 79.3394 182.229V143.57C79.3199 143.392 79.3101 143.213 79.3101 143.034L79.4858 141.995C80.8361 133.956 84.9951 126.655 91.2239 121.389C97.4527 116.123 105.348 113.233 113.508 113.233H120.057C121.869 113.233 123.606 112.514 124.888 111.234C126.169 109.954 126.889 108.218 126.889 106.408V92" stroke="white" stroke-width="8" stroke-linecap="round" stroke-linejoin="round"/>
<path d="M173.5 53C176.5 54 177.976 57.4726 177.273 62.3281C176.57 67.1836 173.301 70.7375 169.977 70.25C169.755 70.202 169.536 70.1368 169.324 70.055C164.561 85.1577 153.63 95.7365 140.899 95.7365C128.167 95.7365 117.241 85.1675 112.478 70.055C112.266 70.1368 112.047 70.202 111.824 70.25C108.501 70.7375 105.232 67.1885 104.529 62.333C103.826 57.4775 105.5 54 108 53" stroke="white" stroke-width="8"/>
<path d="M173.5 53C176.5 54 177.976 57.4726 177.273 62.3281C176.57 67.1836 173.301 70.7375 169.977 70.25C169.755 70.202 169.536 70.1368 169.324 70.055C164.561 85.1577 153.63 95.7365 140.899 95.7365C128.167 95.7365 117.241 85.1675 112.478 70.055C112.266 70.1368 112.047 70.202 111.824 70.25C108.501 70.7375 105.232 67.1885 104.529 62.333C103.826 57.4775 105.5 54.5 108 53" stroke="white" stroke-width="8" stroke-linecap="round" stroke-linejoin="round"/>
<path d="M175.126 43.2084C174.962 48.0942 173.83 52.8991 171.798 57.3459C171.315 54.7018 170.548 52.1176 169.509 49.6385C168.411 47.8591 157.392 35.8861 156.333 32.0885C153.137 36.6564 139.283 43.6276 131.202 44.4661C123.121 45.3046 110.57 42.3748 110.614 62.45C108.425 57.1545 107.309 51.4777 107.33 45.7483C107.33 24.737 121.794 7.72325 139.635 7.72325C147.172 8.20769 154.329 11.201 159.964 16.2253C167.567 14.4264 175.838 24.3909 175.126 43.2084Z" stroke="white" stroke-width="8" stroke-linecap="round" stroke-linejoin="round"/>
<path d="M104.139 114.515C104.139 114.515 109.355 131.836 140.615 131.836C171.876 131.836 177.663 114.515 177.663 114.515" stroke="white" stroke-width="8" stroke-linecap="round" stroke-linejoin="round"/>
<path d="M132.837 56.2539H121.965C119.989 56.2539 118.388 57.8537 118.388 59.8273V61.904C118.388 63.8775 119.989 65.4774 121.965 65.4774H132.837C134.812 65.4774 136.414 63.8775 136.414 61.904V59.8273C136.414 57.8537 134.812 56.2539 132.837 56.2539Z" stroke="white" stroke-width="5" stroke-linecap="round" stroke-linejoin="round"/>
<path d="M159.837 56.2539H148.965C146.989 56.2539 145.388 57.8537 145.388 59.8273V61.904C145.388 63.8775 146.989 65.4774 148.965 65.4774H159.837C161.813 65.4774 163.414 63.8775 163.414 61.904V59.8273C163.414 57.8537 161.813 56.2539 159.837 56.2539Z" stroke="white" stroke-width="5" stroke-linecap="round" stroke-linejoin="round"/>
<path d="M136.414 58.9254H145.388" stroke="white" stroke-width="5" stroke-linecap="round" stroke-linejoin="round"/>
</g>
<defs>
<clipPath id="clip0_5_2">
<rect width="200" height="195" fill="white" transform="translate(5 2)"/>
</clipPath>
</defs>
</svg>
