<svg xmlns="http://www.w3.org/2000/svg" viewBox="0 0 40.985 40"><path d="M25.743,28.929l-.036-.213a7.07,7.07,0,0,0-6.972-5.9H17.391a1.4,1.4,0,0,1-1.4-1.4V18.17H10.25v3.247a1.4,1.4,0,0,1-1.4,1.4H7.508a7.07,7.07,0,0,0-6.972,5.9L.5,28.929v8.04a1.86,1.86,0,0,0,1.86,1.86H23.9a1.86,1.86,0,0,0,1.86-1.86v-8.04Z" fill="#fff" stroke="#000" stroke-linecap="round" stroke-linejoin="round"/><path d="M6.823,11.013a3.342,3.342,0,0,0-2.387.849c-1.357,1.03-2.936,3.167-1.033,6.5s3.517,2.941,2.065,7.3c-.452,1.065,2.523-.806,3.173-2.323S8.759,18.315,7.42,16.7s-2.4-3.646-.532-5.049Z" fill="#fff" stroke="#2aa4e9" stroke-linecap="round" stroke-linejoin="round"/><path d="M19.487,11.013a3.345,3.345,0,0,1,2.388.849c1.357,1.03,2.936,3.167,1.032,6.5s-3.516,2.941-2.065,7.3c.452,1.065-2.523-.806-3.173-2.323s-.117-5.016,1.222-6.629,2.4-3.646.532-5.049Z" fill="#fff" stroke="#2aa4e9" stroke-linecap="round" stroke-linejoin="round"/><path d="M18.845,9.6a1.078,1.078,0,0,0-.434.035c-.315-4.45-2.561-7.9-5.29-7.9s-4.974,3.452-5.29,7.9A1.072,1.072,0,0,0,7.4,9.6a1.6,1.6,0,0,0-1.087,1.933c.139.96.851,1.651,1.59,1.544.028,0,.052-.016.079-.022.613,3.818,2.68,6.631,5.141,6.631s4.529-2.813,5.142-6.631c.027.006.051.018.078.022.74.107,1.452-.584,1.591-1.544A1.6,1.6,0,0,0,18.845,9.6Z" fill="#fff"/><path d="M18.845,9.6a1.078,1.078,0,0,0-.434.035c-.315-4.45-2.561-7.9-5.29-7.9s-4.974,3.452-5.29,7.9A1.072,1.072,0,0,0,7.4,9.6a1.6,1.6,0,0,0-1.087,1.933c.139.96.851,1.651,1.59,1.544.028,0,.052-.016.079-.022.613,3.818,2.68,6.631,5.141,6.631s4.529-2.813,5.142-6.631c.027.006.051.018.078.022.74.107,1.452-.584,1.591-1.544A1.6,1.6,0,0,0,18.845,9.6Z" fill="none" stroke="#000" stroke-linecap="round" stroke-linejoin="round"/><path d="M19.832,7.763a6.149,6.149,0,0,1-.384,2.14,1.1,1.1,0,0,0-.6-.3,1.043,1.043,0,0,0-.431.026S17.727,5.2,16.743,5.684c-1.345.661-2.138,4.92-8.28,5.764-1.214.093-1-2.591-1.67-1.548a6.174,6.174,0,0,1-.382-2.137,6.562,6.562,0,0,1,6.71-6.4A6.563,6.563,0,0,1,19.832,7.763Z" fill="#fff" stroke="#2aa4e9" stroke-linecap="round" stroke-linejoin="round"/><path d="M1.839,25.66s3.547,3.108,11.282,3.108S24.4,25.66,24.4,25.66" fill="none" stroke="#000" stroke-linecap="round" stroke-linejoin="round"/><path d="M40.471,28.929l-.036-.213a7.07,7.07,0,0,0-6.972-5.9H32.119a1.4,1.4,0,0,1-1.4-1.4V18.17H24.978v3.247a1.4,1.4,0,0,1-1.4,1.4H22.236a7.07,7.07,0,0,0-6.972,5.9l-.036.213a1.014,1.014,0,0,0,.006.11v7.93a1.86,1.86,0,0,0,1.86,1.86H38.625a1.86,1.86,0,0,0,1.86-1.86v-8.04Z" fill="#fff" stroke="#000" stroke-linecap="round" stroke-linejoin="round"/><path d="M34.331,10.393a.784.784,0,0,0-.137,0c-.037-4.784-2.862-8.647-6.345-8.647s-6.307,3.863-6.344,8.647a.784.784,0,0,0-.137,0c-.681.1-1.116.987-.972,1.983S21.21,14.1,21.891,14a.9.9,0,0,0,.134-.04c.976,3.1,3.215,5.268,5.824,5.268s4.849-2.17,5.825-5.268a.9.9,0,0,0,.134.04c.681.1,1.351-.629,1.495-1.625S35.012,10.492,34.331,10.393Z" fill="#fff"/><path d="M34.331,10.393a.784.784,0,0,0-.137,0c-.037-4.784-2.862-8.647-6.345-8.647s-6.307,3.863-6.344,8.647a.784.784,0,0,0-.137,0c-.681.1-1.116.987-.972,1.983S21.21,14.1,21.891,14a.9.9,0,0,0,.134-.04c.976,3.1,3.215,5.268,5.824,5.268s4.849-2.17,5.825-5.268a.9.9,0,0,0,.134.04c.681.1,1.351-.629,1.495-1.625S35.012,10.492,34.331,10.393Z" fill="none" stroke="#000" stroke-linecap="round" stroke-linejoin="round"/><path d="M34.863,8.453a7.594,7.594,0,0,1-.682,2.9,7.638,7.638,0,0,0-.469-1.581c-.225-.365-2.483-2.821-2.7-3.6-.655.937-3.494,2.367-5.15,2.539s-4.228-.429-4.219,3.689a8.887,8.887,0,0,1-.673-3.426c0-4.31,2.964-7.8,6.62-7.8a6.924,6.924,0,0,1,4.166,1.744C33.314,2.549,35.009,4.593,34.863,8.453Z" fill="#fff" stroke="#2aa4e9" stroke-linecap="round" stroke-linejoin="round"/><path d="M20.316,23.08s1.069,3.553,7.475,3.553,7.592-3.553,7.592-3.553" fill="#fff" stroke="#000" stroke-linecap="round" stroke-linejoin="round"/><rect x="23.236" y="11.129" width="3.694" height="1.892" rx="0.733" fill="#fff" stroke="#000" stroke-linecap="round" stroke-linejoin="round"/><rect x="28.769" y="11.129" width="3.694" height="1.892" rx="0.733" fill="#fff" stroke="#000" stroke-linecap="round" stroke-linejoin="round"/><line x1="26.93" y1="11.677" x2="28.769" y2="11.677" fill="#fff" stroke="#000" stroke-linecap="round" stroke-linejoin="round"/></svg>